<svg width="50" height="50" viewBox="0 0 50 50" fill="none" xmlns="http://www.w3.org/2000/svg">
<circle cx="25" cy="25" r="23.5" fill="white" stroke="#1E1E1E" stroke-width="3"/>
<circle cx="17.3858" cy="19.9239" r="4.94924" fill="#1E1E1E"/>
<circle cx="32.3604" cy="19.9239" r="4.94924" fill="#1E1E1E"/>
<path d="M31.9797 36.2944C31.9797 34.4096 31.231 32.602 29.8982 31.2693C28.5655 29.9365 26.7579 29.1878 24.8731 29.1878C22.9883 29.1878 21.1807 29.9365 19.848 31.2693C18.5152 32.602 17.7665 34.4096 17.7665 36.2944H18.9609C18.9609 34.7264 19.5838 33.2226 20.6925 32.1139C21.8013 31.0051 23.3051 30.3822 24.8731 30.3822C26.4411 30.3822 27.9449 31.0051 29.0536 32.1139C30.1624 33.2226 30.7853 34.7264 30.7853 36.2944H31.9797Z" fill="#1E1E1E"/>
</svg>
