<svg width="22" height="14" viewBox="0 0 22 14" fill="none" xmlns="http://www.w3.org/2000/svg">
<path d="M0.792969 10.4102L9.46484 1.53906C9.92578 1.07031 10.4414 0.835938 11.0117 0.835938C11.3008 0.84375 11.5703 0.90625 11.8203 1.02344C12.0703 1.13281 12.3125 1.30469 12.5469 1.53906L21.207 10.4102C21.5586 10.7539 21.7344 11.1836 21.7344 11.6992C21.7344 12.0508 21.6484 12.3672 21.4766 12.6484C21.3125 12.9297 21.0898 13.1562 20.8086 13.3281C20.5273 13.5 20.2148 13.5859 19.8711 13.5859C19.3398 13.5859 18.8828 13.3867 18.5 12.9883L10.543 4.77344H11.4922L3.51172 12.9883C3.12109 13.3867 2.66016 13.5859 2.12891 13.5859C1.78516 13.5859 1.47266 13.5 1.19141 13.3281C0.910156 13.1562 0.683594 12.9297 0.511719 12.6484C0.347656 12.3672 0.265625 12.0508 0.265625 11.6992C0.265625 11.4492 0.308594 11.2148 0.394531 10.9961C0.488281 10.7773 0.621094 10.582 0.792969 10.4102Z" fill="#1E1E1E"/>
</svg>
