<svg width="50" height="50" viewBox="0 0 50 50" fill="none" xmlns="http://www.w3.org/2000/svg">
<circle cx="25" cy="25" r="23.5" fill="white" stroke="#1E1E1E" stroke-width="3"/>
<circle cx="17.3858" cy="19.9238" r="4.94924" fill="#1E1E1E"/>
<circle cx="32.3604" cy="19.9238" r="4.94924" fill="#1E1E1E"/>
<path d="M17.0051 31.2183C17.0051 33.2713 17.8206 35.2403 19.2724 36.6921C20.7241 38.1438 22.6931 38.9594 24.7462 38.9594C26.7993 38.9594 28.7682 38.1438 30.22 36.6921C31.6717 35.2403 32.4873 33.2713 32.4873 31.2183L31.4394 31.2183C31.4394 32.9934 30.7342 34.6958 29.479 35.951C28.2238 37.2063 26.5213 37.9114 24.7462 37.9114C22.971 37.9114 21.2686 37.2063 20.0134 35.951C18.7582 34.6958 18.053 32.9934 18.053 31.2183L17.0051 31.2183Z" fill="#1E1E1E"/>
</svg>
