<svg width="23" height="19" viewBox="0 0 23 19" fill="none" xmlns="http://www.w3.org/2000/svg">
<path d="M0.0859375 9.50391C0.0859375 9.00391 0.261719 8.58594 0.613281 8.25L8.23047 0.632812C8.41016 0.453125 8.60156 0.320312 8.80469 0.234375C9.01562 0.140625 9.22266 0.09375 9.42578 0.09375C9.92578 0.09375 10.3281 0.25 10.6328 0.5625C10.9453 0.867188 11.1016 1.24609 11.1016 1.69922C11.1016 1.95703 11.0508 2.1875 10.9492 2.39062C10.8555 2.58594 10.7305 2.76172 10.5742 2.91797L7.94922 5.55469L4.07031 9.11719L3.34375 8.05078L7.90234 7.80469H21.1445C21.6758 7.80469 22.1016 7.96094 22.4219 8.27344C22.7422 8.58594 22.9023 8.99609 22.9023 9.50391C22.9023 10.0117 22.7422 10.4219 22.4219 10.7344C22.1016 11.0469 21.6758 11.2031 21.1445 11.2031H7.90234L3.34375 10.957L4.07031 9.89062L7.94922 13.4531L10.5742 16.0781C10.7305 16.2344 10.8555 16.4141 10.9492 16.6172C11.0508 16.8125 11.1016 17.0391 11.1016 17.2969C11.1016 17.75 10.9453 18.1289 10.6328 18.4336C10.3281 18.7461 9.92578 18.9023 9.42578 18.9023C8.99609 18.9023 8.60156 18.7266 8.24219 18.375L0.613281 10.7578C0.261719 10.4141 0.0859375 9.99609 0.0859375 9.50391Z" fill="black"/>
</svg>
