<svg width="66" height="66" viewBox="0 0 66 66" fill="none" xmlns="http://www.w3.org/2000/svg">
<g filter="url(#filter0_d_682_2058)">
<rect x="15" y="7" width="36" height="36" rx="18" fill="#FFE208"/>
<path d="M26.1934 34.2949C25.0801 34.2949 24.2272 33.9987 23.6348 33.4062C23.0423 32.8203 22.7461 31.974 22.7461 30.8672V19.0508C22.7461 17.944 23.0423 17.0977 23.6348 16.5117C24.2272 15.9193 25.0801 15.623 26.1934 15.623H39.8066C40.9199 15.623 41.7695 15.9193 42.3555 16.5117C42.9479 17.0977 43.2441 17.944 43.2441 19.0508V30.8672C43.2441 31.974 42.9479 32.8203 42.3555 33.4062C41.7695 33.9987 40.9199 34.2949 39.8066 34.2949H26.1934ZM26.3789 31.7754H39.6113C39.9759 31.7754 40.2526 31.6842 40.4414 31.502C40.6302 31.3197 40.7246 31.0365 40.7246 30.6523V21.9609C40.7246 21.5833 40.6302 21.3034 40.4414 21.1211C40.2526 20.9388 39.9759 20.8477 39.6113 20.8477H26.3789C26.0143 20.8477 25.7376 20.9388 25.5488 21.1211C25.36 21.3034 25.2656 21.5833 25.2656 21.9609V30.6523C25.2656 31.0365 25.36 31.3197 25.5488 31.502C25.7376 31.6842 26.0143 31.7754 26.3789 31.7754ZM31.1738 24.0215C30.9915 24.0215 30.8646 23.9857 30.793 23.9141C30.7214 23.8424 30.6855 23.7188 30.6855 23.543V22.9668C30.6855 22.791 30.7214 22.6706 30.793 22.6055C30.8646 22.5339 30.9915 22.498 31.1738 22.498H31.7402C31.9225 22.498 32.0495 22.5339 32.1211 22.6055C32.1927 22.6706 32.2285 22.791 32.2285 22.9668V23.543C32.2285 23.7188 32.1927 23.8424 32.1211 23.9141C32.0495 23.9857 31.9225 24.0215 31.7402 24.0215H31.1738ZM34.2695 24.0215C34.0938 24.0215 33.9701 23.9857 33.8984 23.9141C33.8268 23.8424 33.791 23.7188 33.791 23.543V22.9668C33.791 22.791 33.8268 22.6706 33.8984 22.6055C33.9701 22.5339 34.0938 22.498 34.2695 22.498H34.8457C35.028 22.498 35.1549 22.5339 35.2266 22.6055C35.2982 22.6706 35.334 22.791 35.334 22.9668V23.543C35.334 23.7188 35.2982 23.8424 35.2266 23.9141C35.1549 23.9857 35.028 24.0215 34.8457 24.0215H34.2695ZM37.375 24.0215C37.1992 24.0215 37.0755 23.9857 37.0039 23.9141C36.9323 23.8424 36.8965 23.7188 36.8965 23.543V22.9668C36.8965 22.791 36.9323 22.6706 37.0039 22.6055C37.0755 22.5339 37.1992 22.498 37.375 22.498H37.9512C38.1335 22.498 38.2604 22.5339 38.332 22.6055C38.4036 22.6706 38.4395 22.791 38.4395 22.9668V23.543C38.4395 23.7188 38.4036 23.8424 38.332 23.9141C38.2604 23.9857 38.1335 24.0215 37.9512 24.0215H37.375ZM28.0684 27.0684C27.8861 27.0684 27.7591 27.0358 27.6875 26.9707C27.6159 26.8991 27.5801 26.7754 27.5801 26.5996V26.0234C27.5801 25.8477 27.6159 25.7272 27.6875 25.6621C27.7591 25.5905 27.8861 25.5547 28.0684 25.5547H28.6445C28.8203 25.5547 28.944 25.5905 29.0156 25.6621C29.0872 25.7272 29.123 25.8477 29.123 26.0234V26.5996C29.123 26.7754 29.0872 26.8991 29.0156 26.9707C28.944 27.0358 28.8203 27.0684 28.6445 27.0684H28.0684ZM31.1738 27.0684C30.9915 27.0684 30.8646 27.0358 30.793 26.9707C30.7214 26.8991 30.6855 26.7754 30.6855 26.5996V26.0234C30.6855 25.8477 30.7214 25.7272 30.793 25.6621C30.8646 25.5905 30.9915 25.5547 31.1738 25.5547H31.7402C31.9225 25.5547 32.0495 25.5905 32.1211 25.6621C32.1927 25.7272 32.2285 25.8477 32.2285 26.0234V26.5996C32.2285 26.7754 32.1927 26.8991 32.1211 26.9707C32.0495 27.0358 31.9225 27.0684 31.7402 27.0684H31.1738ZM34.2695 27.0684C34.0938 27.0684 33.9701 27.0358 33.8984 26.9707C33.8268 26.8991 33.791 26.7754 33.791 26.5996V26.0234C33.791 25.8477 33.8268 25.7272 33.8984 25.6621C33.9701 25.5905 34.0938 25.5547 34.2695 25.5547H34.8457C35.028 25.5547 35.1549 25.5905 35.2266 25.6621C35.2982 25.7272 35.334 25.8477 35.334 26.0234V26.5996C35.334 26.7754 35.2982 26.8991 35.2266 26.9707C35.1549 27.0358 35.028 27.0684 34.8457 27.0684H34.2695ZM37.375 27.0684C37.1992 27.0684 37.0755 27.0358 37.0039 26.9707C36.9323 26.8991 36.8965 26.7754 36.8965 26.5996V26.0234C36.8965 25.8477 36.9323 25.7272 37.0039 25.6621C37.0755 25.5905 37.1992 25.5547 37.375 25.5547H37.9512C38.1335 25.5547 38.2604 25.5905 38.332 25.6621C38.4036 25.7272 38.4395 25.8477 38.4395 26.0234V26.5996C38.4395 26.7754 38.4036 26.8991 38.332 26.9707C38.2604 27.0358 38.1335 27.0684 37.9512 27.0684H37.375ZM28.0684 30.125C27.8861 30.125 27.7591 30.0924 27.6875 30.0273C27.6159 29.9557 27.5801 29.8288 27.5801 29.6465V29.0801C27.5801 28.8978 27.6159 28.7741 27.6875 28.709C27.7591 28.6439 27.8861 28.6113 28.0684 28.6113H28.6445C28.8203 28.6113 28.944 28.6439 29.0156 28.709C29.0872 28.7741 29.123 28.8978 29.123 29.0801V29.6465C29.123 29.8288 29.0872 29.9557 29.0156 30.0273C28.944 30.0924 28.8203 30.125 28.6445 30.125H28.0684ZM31.1738 30.125C30.9915 30.125 30.8646 30.0924 30.793 30.0273C30.7214 29.9557 30.6855 29.8288 30.6855 29.6465V29.0801C30.6855 28.8978 30.7214 28.7741 30.793 28.709C30.8646 28.6439 30.9915 28.6113 31.1738 28.6113H31.7402C31.9225 28.6113 32.0495 28.6439 32.1211 28.709C32.1927 28.7741 32.2285 28.8978 32.2285 29.0801V29.6465C32.2285 29.8288 32.1927 29.9557 32.1211 30.0273C32.0495 30.0924 31.9225 30.125 31.7402 30.125H31.1738ZM34.2695 30.125C34.0938 30.125 33.9701 30.0924 33.8984 30.0273C33.8268 29.9557 33.791 29.8288 33.791 29.6465V29.0801C33.791 28.8978 33.8268 28.7741 33.8984 28.709C33.9701 28.6439 34.0938 28.6113 34.2695 28.6113H34.8457C35.028 28.6113 35.1549 28.6439 35.2266 28.709C35.2982 28.7741 35.334 28.8978 35.334 29.0801V29.6465C35.334 29.8288 35.2982 29.9557 35.2266 30.0273C35.1549 30.0924 35.028 30.125 34.8457 30.125H34.2695Z" fill="#1E1E1E"/>
</g>
<defs>
<filter id="filter0_d_682_2058" x="0" y="0" width="66" height="66" filterUnits="userSpaceOnUse" color-interpolation-filters="sRGB">
<feFlood flood-opacity="0" result="BackgroundImageFix"/>
<feColorMatrix in="SourceAlpha" type="matrix" values="0 0 0 0 0 0 0 0 0 0 0 0 0 0 0 0 0 0 127 0" result="hardAlpha"/>
<feOffset dy="8"/>
<feGaussianBlur stdDeviation="7.5"/>
<feComposite in2="hardAlpha" operator="out"/>
<feColorMatrix type="matrix" values="0 0 0 0 0 0 0 0 0 0 0 0 0 0 0 0 0 0 0.15 0"/>
<feBlend mode="normal" in2="BackgroundImageFix" result="effect1_dropShadow_682_2058"/>
<feBlend mode="normal" in="SourceGraphic" in2="effect1_dropShadow_682_2058" result="shape"/>
</filter>
</defs>
</svg>
