<svg width="56" height="56" viewBox="0 0 56 56" fill="none" xmlns="http://www.w3.org/2000/svg">
<g filter="url(#filter0_d_682_2055)">
<rect x="9" y="8" width="36" height="36" rx="18" fill="#1E1E1E"/>
<path d="M20.8301 34.9531C19.8079 34.9531 19.0397 34.6992 18.5254 34.1914C18.0176 33.6901 17.7637 32.9349 17.7637 31.9258V20.002C17.7637 18.9928 18.0176 18.2376 18.5254 17.7363C19.0397 17.2285 19.8079 16.9746 20.8301 16.9746H34.1699C35.1921 16.9746 35.957 17.2285 36.4648 17.7363C36.9727 18.2376 37.2266 18.9928 37.2266 20.002V31.9258C37.2266 32.9349 36.9727 33.6901 36.4648 34.1914C35.957 34.6992 35.1921 34.9531 34.1699 34.9531H20.8301ZM20.6836 33.3809H34.2969C34.7331 33.3809 35.0684 33.2637 35.3027 33.0293C35.5371 32.8014 35.6543 32.4629 35.6543 32.0137V22.8047C35.6543 22.3555 35.5371 22.0169 35.3027 21.7891C35.0684 21.5547 34.7331 21.4375 34.2969 21.4375H20.6836C20.2539 21.4375 19.9219 21.5547 19.6875 21.7891C19.4531 22.0169 19.3359 22.3555 19.3359 22.8047V32.0137C19.3359 32.4629 19.4531 32.8014 19.6875 33.0293C19.9219 33.2637 20.2539 33.3809 20.6836 33.3809ZM25.5957 24.9531C25.4264 24.9531 25.306 24.9206 25.2344 24.8555C25.1693 24.7904 25.1367 24.6732 25.1367 24.5039V23.9277C25.1367 23.7585 25.1693 23.6445 25.2344 23.5859C25.306 23.5208 25.4264 23.4883 25.5957 23.4883H26.1719C26.3411 23.4883 26.4583 23.5208 26.5234 23.5859C26.5951 23.6445 26.6309 23.7585 26.6309 23.9277V24.5039C26.6309 24.6732 26.5951 24.7904 26.5234 24.8555C26.4583 24.9206 26.3411 24.9531 26.1719 24.9531H25.5957ZM28.8379 24.9531C28.6686 24.9531 28.5514 24.9206 28.4863 24.8555C28.4212 24.7904 28.3887 24.6732 28.3887 24.5039V23.9277C28.3887 23.7585 28.4212 23.6445 28.4863 23.5859C28.5514 23.5208 28.6686 23.4883 28.8379 23.4883H29.4141C29.5898 23.4883 29.7103 23.5208 29.7754 23.5859C29.8405 23.6445 29.873 23.7585 29.873 23.9277V24.5039C29.873 24.6732 29.8405 24.7904 29.7754 24.8555C29.7103 24.9206 29.5898 24.9531 29.4141 24.9531H28.8379ZM32.0898 24.9531C31.9141 24.9531 31.7936 24.9206 31.7285 24.8555C31.6634 24.7904 31.6309 24.6732 31.6309 24.5039V23.9277C31.6309 23.7585 31.6634 23.6445 31.7285 23.5859C31.7936 23.5208 31.9141 23.4883 32.0898 23.4883H32.6562C32.832 23.4883 32.9525 23.5208 33.0176 23.5859C33.0827 23.6445 33.1152 23.7585 33.1152 23.9277V24.5039C33.1152 24.6732 33.0827 24.7904 33.0176 24.8555C32.9525 24.9206 32.832 24.9531 32.6562 24.9531H32.0898ZM22.3535 28.1465C22.1777 28.1465 22.0573 28.1139 21.9922 28.0488C21.9271 27.9837 21.8945 27.8665 21.8945 27.6973V27.1309C21.8945 26.9551 21.9271 26.8379 21.9922 26.7793C22.0573 26.7142 22.1777 26.6816 22.3535 26.6816H22.9297C23.099 26.6816 23.2161 26.7142 23.2812 26.7793C23.3464 26.8379 23.3789 26.9551 23.3789 27.1309V27.6973C23.3789 27.8665 23.3464 27.9837 23.2812 28.0488C23.2161 28.1139 23.099 28.1465 22.9297 28.1465H22.3535ZM25.5957 28.1465C25.4264 28.1465 25.306 28.1139 25.2344 28.0488C25.1693 27.9837 25.1367 27.8665 25.1367 27.6973V27.1309C25.1367 26.9551 25.1693 26.8379 25.2344 26.7793C25.306 26.7142 25.4264 26.6816 25.5957 26.6816H26.1719C26.3411 26.6816 26.4583 26.7142 26.5234 26.7793C26.5951 26.8379 26.6309 26.9551 26.6309 27.1309V27.6973C26.6309 27.8665 26.5951 27.9837 26.5234 28.0488C26.4583 28.1139 26.3411 28.1465 26.1719 28.1465H25.5957ZM28.8379 28.1465C28.6686 28.1465 28.5514 28.1139 28.4863 28.0488C28.4212 27.9837 28.3887 27.8665 28.3887 27.6973V27.1309C28.3887 26.9551 28.4212 26.8379 28.4863 26.7793C28.5514 26.7142 28.6686 26.6816 28.8379 26.6816H29.4141C29.5898 26.6816 29.7103 26.7142 29.7754 26.7793C29.8405 26.8379 29.873 26.9551 29.873 27.1309V27.6973C29.873 27.8665 29.8405 27.9837 29.7754 28.0488C29.7103 28.1139 29.5898 28.1465 29.4141 28.1465H28.8379ZM32.0898 28.1465C31.9141 28.1465 31.7936 28.1139 31.7285 28.0488C31.6634 27.9837 31.6309 27.8665 31.6309 27.6973V27.1309C31.6309 26.9551 31.6634 26.8379 31.7285 26.7793C31.7936 26.7142 31.9141 26.6816 32.0898 26.6816H32.6562C32.832 26.6816 32.9525 26.7142 33.0176 26.7793C33.0827 26.8379 33.1152 26.9551 33.1152 27.1309V27.6973C33.1152 27.8665 33.0827 27.9837 33.0176 28.0488C32.9525 28.1139 32.832 28.1465 32.6562 28.1465H32.0898ZM22.3535 31.3398C22.1777 31.3398 22.0573 31.3105 21.9922 31.252C21.9271 31.1868 21.8945 31.0664 21.8945 30.8906V30.3242C21.8945 30.1484 21.9271 30.0312 21.9922 29.9727C22.0573 29.9076 22.1777 29.875 22.3535 29.875H22.9297C23.099 29.875 23.2161 29.9076 23.2812 29.9727C23.3464 30.0312 23.3789 30.1484 23.3789 30.3242V30.8906C23.3789 31.0664 23.3464 31.1868 23.2812 31.252C23.2161 31.3105 23.099 31.3398 22.9297 31.3398H22.3535ZM25.5957 31.3398C25.4264 31.3398 25.306 31.3105 25.2344 31.252C25.1693 31.1868 25.1367 31.0664 25.1367 30.8906V30.3242C25.1367 30.1484 25.1693 30.0312 25.2344 29.9727C25.306 29.9076 25.4264 29.875 25.5957 29.875H26.1719C26.3411 29.875 26.4583 29.9076 26.5234 29.9727C26.5951 30.0312 26.6309 30.1484 26.6309 30.3242V30.8906C26.6309 31.0664 26.5951 31.1868 26.5234 31.252C26.4583 31.3105 26.3411 31.3398 26.1719 31.3398H25.5957ZM28.8379 31.3398C28.6686 31.3398 28.5514 31.3105 28.4863 31.252C28.4212 31.1868 28.3887 31.0664 28.3887 30.8906V30.3242C28.3887 30.1484 28.4212 30.0312 28.4863 29.9727C28.5514 29.9076 28.6686 29.875 28.8379 29.875H29.4141C29.5898 29.875 29.7103 29.9076 29.7754 29.9727C29.8405 30.0312 29.873 30.1484 29.873 30.3242V30.8906C29.873 31.0664 29.8405 31.1868 29.7754 31.252C29.7103 31.3105 29.5898 31.3398 29.4141 31.3398H28.8379Z" fill="#E0CA27"/>
</g>
<defs>
<filter id="filter0_d_682_2055" x="0" y="0" width="56" height="56" filterUnits="userSpaceOnUse" color-interpolation-filters="sRGB">
<feFlood flood-opacity="0" result="BackgroundImageFix"/>
<feColorMatrix in="SourceAlpha" type="matrix" values="0 0 0 0 0 0 0 0 0 0 0 0 0 0 0 0 0 0 127 0" result="hardAlpha"/>
<feOffset dx="1" dy="2"/>
<feGaussianBlur stdDeviation="5"/>
<feComposite in2="hardAlpha" operator="out"/>
<feColorMatrix type="matrix" values="0 0 0 0 0 0 0 0 0 0 0 0 0 0 0 0 0 0 0.4 0"/>
<feBlend mode="normal" in2="BackgroundImageFix" result="effect1_dropShadow_682_2055"/>
<feBlend mode="normal" in="SourceGraphic" in2="effect1_dropShadow_682_2055" result="shape"/>
</filter>
</defs>
</svg>
