<svg width="44" height="44" viewBox="0 0 44 44" fill="none" xmlns="http://www.w3.org/2000/svg">
<g filter="url(#filter0_d_682_2055)">
<rect x="3" y="2" width="36" height="36" rx="18" fill="#1E1E1E"/>
<path d="M14.8301 28.9531C13.8079 28.9531 13.0397 28.6992 12.5254 28.1914C12.0176 27.6901 11.7637 26.9349 11.7637 25.9258V14.002C11.7637 12.9928 12.0176 12.2376 12.5254 11.7363C13.0397 11.2285 13.8079 10.9746 14.8301 10.9746H28.1699C29.1921 10.9746 29.957 11.2285 30.4648 11.7363C30.9727 12.2376 31.2266 12.9928 31.2266 14.002V25.9258C31.2266 26.9349 30.9727 27.6901 30.4648 28.1914C29.957 28.6992 29.1921 28.9531 28.1699 28.9531H14.8301ZM14.6836 27.3809H28.2969C28.7331 27.3809 29.0684 27.2637 29.3027 27.0293C29.5371 26.8014 29.6543 26.4629 29.6543 26.0137V16.8047C29.6543 16.3555 29.5371 16.0169 29.3027 15.7891C29.0684 15.5547 28.7331 15.4375 28.2969 15.4375H14.6836C14.2539 15.4375 13.9219 15.5547 13.6875 15.7891C13.4531 16.0169 13.3359 16.3555 13.3359 16.8047V26.0137C13.3359 26.4629 13.4531 26.8014 13.6875 27.0293C13.9219 27.2637 14.2539 27.3809 14.6836 27.3809ZM19.5957 18.9531C19.4264 18.9531 19.306 18.9206 19.2344 18.8555C19.1693 18.7904 19.1367 18.6732 19.1367 18.5039V17.9277C19.1367 17.7585 19.1693 17.6445 19.2344 17.5859C19.306 17.5208 19.4264 17.4883 19.5957 17.4883H20.1719C20.3411 17.4883 20.4583 17.5208 20.5234 17.5859C20.5951 17.6445 20.6309 17.7585 20.6309 17.9277V18.5039C20.6309 18.6732 20.5951 18.7904 20.5234 18.8555C20.4583 18.9206 20.3411 18.9531 20.1719 18.9531H19.5957ZM22.8379 18.9531C22.6686 18.9531 22.5514 18.9206 22.4863 18.8555C22.4212 18.7904 22.3887 18.6732 22.3887 18.5039V17.9277C22.3887 17.7585 22.4212 17.6445 22.4863 17.5859C22.5514 17.5208 22.6686 17.4883 22.8379 17.4883H23.4141C23.5898 17.4883 23.7103 17.5208 23.7754 17.5859C23.8405 17.6445 23.873 17.7585 23.873 17.9277V18.5039C23.873 18.6732 23.8405 18.7904 23.7754 18.8555C23.7103 18.9206 23.5898 18.9531 23.4141 18.9531H22.8379ZM26.0898 18.9531C25.9141 18.9531 25.7936 18.9206 25.7285 18.8555C25.6634 18.7904 25.6309 18.6732 25.6309 18.5039V17.9277C25.6309 17.7585 25.6634 17.6445 25.7285 17.5859C25.7936 17.5208 25.9141 17.4883 26.0898 17.4883H26.6562C26.832 17.4883 26.9525 17.5208 27.0176 17.5859C27.0827 17.6445 27.1152 17.7585 27.1152 17.9277V18.5039C27.1152 18.6732 27.0827 18.7904 27.0176 18.8555C26.9525 18.9206 26.832 18.9531 26.6562 18.9531H26.0898ZM16.3535 22.1465C16.1777 22.1465 16.0573 22.1139 15.9922 22.0488C15.9271 21.9837 15.8945 21.8665 15.8945 21.6973V21.1309C15.8945 20.9551 15.9271 20.8379 15.9922 20.7793C16.0573 20.7142 16.1777 20.6816 16.3535 20.6816H16.9297C17.099 20.6816 17.2161 20.7142 17.2812 20.7793C17.3464 20.8379 17.3789 20.9551 17.3789 21.1309V21.6973C17.3789 21.8665 17.3464 21.9837 17.2812 22.0488C17.2161 22.1139 17.099 22.1465 16.9297 22.1465H16.3535ZM19.5957 22.1465C19.4264 22.1465 19.306 22.1139 19.2344 22.0488C19.1693 21.9837 19.1367 21.8665 19.1367 21.6973V21.1309C19.1367 20.9551 19.1693 20.8379 19.2344 20.7793C19.306 20.7142 19.4264 20.6816 19.5957 20.6816H20.1719C20.3411 20.6816 20.4583 20.7142 20.5234 20.7793C20.5951 20.8379 20.6309 20.9551 20.6309 21.1309V21.6973C20.6309 21.8665 20.5951 21.9837 20.5234 22.0488C20.4583 22.1139 20.3411 22.1465 20.1719 22.1465H19.5957ZM22.8379 22.1465C22.6686 22.1465 22.5514 22.1139 22.4863 22.0488C22.4212 21.9837 22.3887 21.8665 22.3887 21.6973V21.1309C22.3887 20.9551 22.4212 20.8379 22.4863 20.7793C22.5514 20.7142 22.6686 20.6816 22.8379 20.6816H23.4141C23.5898 20.6816 23.7103 20.7142 23.7754 20.7793C23.8405 20.8379 23.873 20.9551 23.873 21.1309V21.6973C23.873 21.8665 23.8405 21.9837 23.7754 22.0488C23.7103 22.1139 23.5898 22.1465 23.4141 22.1465H22.8379ZM26.0898 22.1465C25.9141 22.1465 25.7936 22.1139 25.7285 22.0488C25.6634 21.9837 25.6309 21.8665 25.6309 21.6973V21.1309C25.6309 20.9551 25.6634 20.8379 25.7285 20.7793C25.7936 20.7142 25.9141 20.6816 26.0898 20.6816H26.6562C26.832 20.6816 26.9525 20.7142 27.0176 20.7793C27.0827 20.8379 27.1152 20.9551 27.1152 21.1309V21.6973C27.1152 21.8665 27.0827 21.9837 27.0176 22.0488C26.9525 22.1139 26.832 22.1465 26.6562 22.1465H26.0898ZM16.3535 25.3398C16.1777 25.3398 16.0573 25.3105 15.9922 25.252C15.9271 25.1868 15.8945 25.0664 15.8945 24.8906V24.3242C15.8945 24.1484 15.9271 24.0312 15.9922 23.9727C16.0573 23.9076 16.1777 23.875 16.3535 23.875H16.9297C17.099 23.875 17.2161 23.9076 17.2812 23.9727C17.3464 24.0312 17.3789 24.1484 17.3789 24.3242V24.8906C17.3789 25.0664 17.3464 25.1868 17.2812 25.252C17.2161 25.3105 17.099 25.3398 16.9297 25.3398H16.3535ZM19.5957 25.3398C19.4264 25.3398 19.306 25.3105 19.2344 25.252C19.1693 25.1868 19.1367 25.0664 19.1367 24.8906V24.3242C19.1367 24.1484 19.1693 24.0312 19.2344 23.9727C19.306 23.9076 19.4264 23.875 19.5957 23.875H20.1719C20.3411 23.875 20.4583 23.9076 20.5234 23.9727C20.5951 24.0312 20.6309 24.1484 20.6309 24.3242V24.8906C20.6309 25.0664 20.5951 25.1868 20.5234 25.252C20.4583 25.3105 20.3411 25.3398 20.1719 25.3398H19.5957ZM22.8379 25.3398C22.6686 25.3398 22.5514 25.3105 22.4863 25.252C22.4212 25.1868 22.3887 25.0664 22.3887 24.8906V24.3242C22.3887 24.1484 22.4212 24.0312 22.4863 23.9727C22.5514 23.9076 22.6686 23.875 22.8379 23.875H23.4141C23.5898 23.875 23.7103 23.9076 23.7754 23.9727C23.8405 24.0312 23.873 24.1484 23.873 24.3242V24.8906C23.873 25.0664 23.8405 25.1868 23.7754 25.252C23.7103 25.3105 23.5898 25.3398 23.4141 25.3398H22.8379Z" fill="#E0CA27"/>
</g>
<defs>
<filter id="filter0_d_682_2055" x="0" y="0" width="44" height="44" filterUnits="userSpaceOnUse" color-interpolation-filters="sRGB">
<feFlood flood-opacity="0" result="BackgroundImageFix"/>
<feColorMatrix in="SourceAlpha" type="matrix" values="0 0 0 0 0 0 0 0 0 0 0 0 0 0 0 0 0 0 127 0" result="hardAlpha"/>
<feOffset dx="1" dy="2"/>
<feGaussianBlur stdDeviation="2"/>
<feComposite in2="hardAlpha" operator="out"/>
<feColorMatrix type="matrix" values="0 0 0 0 0 0 0 0 0 0 0 0 0 0 0 0 0 0 0.1 0"/>
<feBlend mode="normal" in2="BackgroundImageFix" result="effect1_dropShadow_682_2055"/>
<feBlend mode="normal" in="SourceGraphic" in2="effect1_dropShadow_682_2055" result="shape"/>
</filter>
</defs>
</svg>
