<svg width="21" height="22" viewBox="0 0 21 22" fill="none" xmlns="http://www.w3.org/2000/svg">
<path d="M0.445312 11.0391C0.445312 10.5469 0.617188 10.1289 0.960938 9.78516C1.3125 9.43359 1.73438 9.25781 2.22656 9.25781H8.73047V2.76562C8.73047 2.27344 8.90234 1.85547 9.24609 1.51172C9.58984 1.16016 10.0078 0.984375 10.5 0.984375C10.9922 0.984375 11.4102 1.16016 11.7539 1.51172C12.1055 1.85547 12.2812 2.27344 12.2812 2.76562V9.25781H18.7852C19.2695 9.25781 19.6836 9.43359 20.0273 9.78516C20.3789 10.1289 20.5547 10.5469 20.5547 11.0391C20.5547 11.5312 20.3789 11.9531 20.0273 12.3047C19.6836 12.6484 19.2695 12.8203 18.7852 12.8203H12.2812V19.3242C12.2812 19.8086 12.1055 20.2227 11.7539 20.5664C11.4102 20.918 10.9922 21.0938 10.5 21.0938C10.0078 21.0938 9.58984 20.918 9.24609 20.5664C8.90234 20.2227 8.73047 19.8086 8.73047 19.3242V12.8203H2.22656C1.73438 12.8203 1.3125 12.6484 0.960938 12.3047C0.617188 11.9531 0.445312 11.5312 0.445312 11.0391Z" fill="#1E1E1E"/>
</svg>
