<svg width="44" height="44" viewBox="0 0 44 44" fill="none" xmlns="http://www.w3.org/2000/svg">
<g filter="url(#filter0_d_682_2037)">
<path d="M21 38C30.8471 38 39 29.8294 39 20C39 10.1529 30.8294 2 20.9823 2C11.1529 2 3 10.1529 3 20C3 29.8294 11.1706 38 21 38Z" fill="#FFE208"/>
</g>
<path d="M12.3882 20.0176C12.3882 19.1 13.0235 18.4647 13.9412 18.4647H19.4647V12.9412C19.4647 12.0235 20.0823 11.3706 20.9823 11.3706C21.9 11.3706 22.5352 12.0235 22.5352 12.9412V18.4647H28.0765C28.9764 18.4647 29.6293 19.1 29.6293 20.0176C29.6293 20.9177 28.9764 21.5176 28.0765 21.5176H22.5352V27.0588C22.5352 27.9764 21.9 28.6118 20.9823 28.6118C20.0823 28.6118 19.4647 27.9587 19.4647 27.0588V21.5176H13.9412C13.0235 21.5176 12.3882 20.9177 12.3882 20.0176Z" fill="#1E1E1E"/>
<defs>
<filter id="filter0_d_682_2037" x="0" y="0" width="44" height="44" filterUnits="userSpaceOnUse" color-interpolation-filters="sRGB">
<feFlood flood-opacity="0" result="BackgroundImageFix"/>
<feColorMatrix in="SourceAlpha" type="matrix" values="0 0 0 0 0 0 0 0 0 0 0 0 0 0 0 0 0 0 127 0" result="hardAlpha"/>
<feOffset dx="1" dy="2"/>
<feGaussianBlur stdDeviation="2"/>
<feComposite in2="hardAlpha" operator="out"/>
<feColorMatrix type="matrix" values="0 0 0 0 0 0 0 0 0 0 0 0 0 0 0 0 0 0 0.1 0"/>
<feBlend mode="normal" in2="BackgroundImageFix" result="effect1_dropShadow_682_2037"/>
<feBlend mode="normal" in="SourceGraphic" in2="effect1_dropShadow_682_2037" result="shape"/>
</filter>
</defs>
</svg>
