<svg width="32" height="33" viewBox="0 0 32 33" fill="none" xmlns="http://www.w3.org/2000/svg">
<path d="M16 32.6562C13.8229 32.6562 11.7708 32.2396 9.84375 31.4062C7.92708 30.5729 6.23438 29.4219 4.76562 27.9531C3.29688 26.4844 2.14583 24.7917 1.3125 22.875C0.479167 20.9479 0.0625 18.8958 0.0625 16.7188C0.0625 14.5417 0.479167 12.4948 1.3125 10.5781C2.14583 8.65104 3.29167 6.95312 4.75 5.48438C6.21875 4.01562 7.91146 2.86458 9.82812 2.03125C11.7552 1.19792 13.8073 0.78125 15.9844 0.78125C18.1615 0.78125 20.2135 1.19792 22.1406 2.03125C24.0677 2.86458 25.7656 4.01562 27.2344 5.48438C28.7031 6.95312 29.8542 8.65104 30.6875 10.5781C31.5208 12.4948 31.9375 14.5417 31.9375 16.7188C31.9375 18.8958 31.5208 20.9479 30.6875 22.875C29.8542 24.7917 28.7031 26.4844 27.2344 27.9531C25.7656 29.4219 24.0677 30.5729 22.1406 31.4062C20.224 32.2396 18.1771 32.6562 16 32.6562ZM16 30C17.8438 30 19.5677 29.6562 21.1719 28.9688C22.776 28.2812 24.1875 27.3333 25.4062 26.125C26.625 24.9062 27.5729 23.4948 28.25 21.8906C28.9375 20.2865 29.2812 18.5625 29.2812 16.7188C29.2812 14.875 28.9375 13.151 28.25 11.5469C27.5625 9.94271 26.6094 8.53125 25.3906 7.3125C24.1823 6.09375 22.7708 5.14583 21.1562 4.46875C19.5521 3.78125 17.8281 3.4375 15.9844 3.4375C14.1406 3.4375 12.4167 3.78125 10.8125 4.46875C9.20833 5.14583 7.80208 6.09375 6.59375 7.3125C5.38542 8.53125 4.4375 9.94271 3.75 11.5469C3.07292 13.151 2.73438 14.875 2.73438 16.7188C2.73438 18.5625 3.07292 20.2865 3.75 21.8906C4.4375 23.4948 5.38542 24.9062 6.59375 26.125C7.8125 27.3333 9.22396 28.2812 10.8281 28.9688C12.4323 29.6562 14.1562 30 16 30ZM8.75 16.7188C8.75 16.3229 8.86979 16.0052 9.10938 15.7656C9.35938 15.5156 9.6875 15.3906 10.0938 15.3906H14.6875V10.7969C14.6875 10.401 14.8073 10.0781 15.0469 9.82812C15.2865 9.57812 15.5938 9.45312 15.9688 9.45312C16.3646 9.45312 16.6823 9.57812 16.9219 9.82812C17.1719 10.0677 17.2969 10.3906 17.2969 10.7969V15.3906H21.9062C22.3021 15.3906 22.6198 15.5156 22.8594 15.7656C23.1094 16.0052 23.2344 16.3229 23.2344 16.7188C23.2344 17.0938 23.1094 17.401 22.8594 17.6406C22.6198 17.8802 22.3021 18 21.9062 18H17.2969V22.6094C17.2969 23.0052 17.1719 23.3281 16.9219 23.5781C16.6823 23.8177 16.3646 23.9375 15.9688 23.9375C15.5938 23.9375 15.2865 23.8177 15.0469 23.5781C14.8073 23.3281 14.6875 23.0052 14.6875 22.6094V18H10.0938C9.69792 18 9.375 17.8802 9.125 17.6406C8.875 17.401 8.75 17.0938 8.75 16.7188Z" fill="#E0CA27"/>
</svg>
