<svg width="57" height="50" viewBox="0 0 57 50" fill="none" xmlns="http://www.w3.org/2000/svg">
<path d="M50.8991 25C50.8991 37.9687 40.3085 48.5 27.222 48.5C14.1355 48.5 3.54485 37.9687 3.54485 25C3.54485 12.0313 14.1355 1.5 27.222 1.5C40.3085 1.5 50.8991 12.0313 50.8991 25Z" fill="white" stroke="#1E1E1E" stroke-width="3"/>
<ellipse cx="19.5538" cy="19.9238" rx="4.9843" ry="4.94924" fill="#1E1E1E"/>
<ellipse cx="34.6345" cy="19.9238" rx="4.9843" ry="4.94924" fill="#1E1E1E"/>
<path d="M19.1704 30.33C19.1704 31.3465 19.372 32.3532 19.7638 33.2924C20.1556 34.2316 20.7299 35.0849 21.4538 35.8038C22.1777 36.5226 23.0371 37.0928 23.983 37.4818C24.9288 37.8708 25.9426 38.0711 26.9664 38.0711C27.9901 38.0711 29.0039 37.8708 29.9498 37.4818C30.8956 37.0928 31.755 36.5226 32.4789 35.8038C33.2029 35.0849 33.7771 34.2316 34.1689 33.2924C34.5607 32.3532 34.7623 31.3465 34.7623 30.33L26.9664 30.33L19.1704 30.33Z" fill="#1E1E1E"/>
<path d="M18.951 16.6735C19.1017 16.215 19.7503 16.215 19.901 16.6735L20.4789 18.4315C20.5287 18.5831 20.6479 18.7018 20.7997 18.751L22.5593 19.3213C23.0204 19.4708 23.0204 20.1231 22.5593 20.2726L20.7997 20.8429C20.6479 20.8921 20.5287 21.0108 20.4789 21.1624L19.901 22.9204C19.7503 23.3789 19.1017 23.3789 18.951 22.9204L18.3731 21.1624C18.3233 21.0108 18.2041 20.8921 18.0523 20.8429L16.2927 20.2726C15.8316 20.1231 15.8316 19.4708 16.2927 19.3213L18.0523 18.751C18.2041 18.7018 18.3233 18.5831 18.3731 18.4315L18.951 16.6735Z" fill="#FFE208"/>
<path d="M51.9241 19.4654C52.0748 19.0069 52.7234 19.0069 52.8741 19.4654L53.452 21.2234C53.5018 21.375 53.621 21.4937 53.7728 21.5429L55.5324 22.1132C55.9935 22.2626 55.9935 22.915 55.5324 23.0645L53.7728 23.6347C53.621 23.6839 53.5018 23.8026 53.452 23.9542L52.8741 25.7123C52.7234 26.1708 52.0748 26.1708 51.9241 25.7123L51.3462 23.9542C51.2964 23.8026 51.1772 23.6839 51.0254 23.6347L49.2658 23.0645C48.8047 22.915 48.8047 22.2626 49.2658 22.1132L51.0254 21.5429C51.1772 21.4937 51.2964 21.375 51.3462 21.2234L51.9241 19.4654Z" fill="#FFE208"/>
<path d="M4.1259 4.99839C4.27661 4.5399 4.92519 4.5399 5.07589 4.99839L5.65376 6.75642C5.7036 6.90803 5.8228 7.02674 5.97461 7.07594L7.73418 7.6462C8.19531 7.79565 8.19531 8.44804 7.73418 8.59749L5.97461 9.16775C5.8228 9.21695 5.7036 9.33566 5.65376 9.48726L5.0759 11.2453C4.92519 11.7038 4.27661 11.7038 4.1259 11.2453L3.54803 9.48726C3.4982 9.33566 3.37899 9.21695 3.22719 9.16775L1.46762 8.59749C1.00649 8.44804 1.00649 7.79565 1.46762 7.6462L3.22719 7.07594C3.37899 7.02674 3.4982 6.90803 3.54803 6.75642L4.1259 4.99839Z" fill="#FFE208"/>
<path d="M34.2873 16.6735C34.438 16.215 35.0866 16.215 35.2373 16.6735L35.8152 18.4315C35.865 18.5831 35.9842 18.7018 36.136 18.751L37.8956 19.3213C38.3567 19.4708 38.3567 20.1231 37.8956 20.2726L36.136 20.8429C35.9842 20.8921 35.865 21.0108 35.8152 21.1624L35.2373 22.9204C35.0866 23.3789 34.438 23.3789 34.2873 22.9204L33.7095 21.1624C33.6596 21.0108 33.5404 20.8921 33.3886 20.8429L31.6291 20.2726C31.1679 20.1231 31.1679 19.4708 31.6291 19.3213L33.3886 18.751C33.5404 18.7018 33.6596 18.5831 33.7095 18.4315L34.2873 16.6735Z" fill="#FFE208"/>
<ellipse cx="8.30717" cy="11.2944" rx="0.894619" ry="0.888325" fill="#FFE208"/>
<ellipse cx="1.15022" cy="15.1015" rx="0.894619" ry="0.888325" fill="#FFE208"/>
<ellipse cx="10.6076" cy="2.66497" rx="0.894619" ry="0.888325" fill="#FFE208"/>
<ellipse cx="47.926" cy="26.269" rx="0.894619" ry="0.888325" fill="#FFE208"/>
<ellipse cx="53.2937" cy="16.8782" rx="0.894619" ry="0.888325" fill="#FFE208"/>
</svg>
