<svg width="22" height="14" viewBox="0 0 22 14" fill="none" xmlns="http://www.w3.org/2000/svg">
<path d="M11.0117 13.2773C10.4492 13.2773 9.93359 13.0469 9.46484 12.5859L0.792969 3.71484C0.621094 3.53516 0.488281 3.33984 0.394531 3.12891C0.308594 2.91016 0.265625 2.67578 0.265625 2.42578C0.265625 2.07422 0.347656 1.75781 0.511719 1.47656C0.683594 1.1875 0.910156 0.960938 1.19141 0.796875C1.47266 0.625 1.78516 0.539062 2.12891 0.539062C2.65234 0.539062 3.11328 0.738281 3.51172 1.13672L11.4922 9.35156H10.543L18.5 1.13672C18.8984 0.738281 19.3555 0.539062 19.8711 0.539062C20.2148 0.539062 20.5273 0.625 20.8086 0.796875C21.0898 0.960938 21.3125 1.1875 21.4766 1.47656C21.6484 1.75781 21.7344 2.07422 21.7344 2.42578C21.7344 2.93359 21.5586 3.36328 21.207 3.71484L12.5469 12.5859C12.3125 12.8203 12.0703 12.9922 11.8203 13.1016C11.5703 13.2109 11.3008 13.2695 11.0117 13.2773Z" fill="#1E1E1E"/>
</svg>
