<svg width="24" height="22" viewBox="0 0 24 22" fill="none" xmlns="http://www.w3.org/2000/svg">
<path d="M0 16.9091C0 14.1979 2.19788 12 4.90909 12C7.62031 12 9.81818 14.1979 9.81818 16.9091C9.81818 19.6203 7.62031 21.8182 4.90909 21.8182C2.19788 21.8182 0 19.6203 0 16.9091Z" fill="#1E1E1E"/>
<path d="M13.8182 16.9091C13.8182 14.1979 16.0161 12 18.7273 12C21.4385 12 23.6364 14.1979 23.6364 16.9091C23.6364 19.6203 21.4385 21.8182 18.7273 21.8182C16.0161 21.8182 13.8182 19.6203 13.8182 16.9091Z" fill="#1E1E1E"/>
<path d="M7 4.90909C7 2.19788 9.19788 0 11.9091 0C14.6203 0 16.8182 2.19788 16.8182 4.90909C16.8182 7.62031 14.6203 9.81818 11.9091 9.81818C9.19788 9.81818 7 7.62031 7 4.90909Z" fill="#1E1E1E"/>
</svg>
